<?xml version="1.0" standalone="no"?>
<!DOCTYPE svg PUBLIC "-//W3C//DTD SVG 20010904//EN"
 "http://www.w3.org/TR/2001/REC-SVG-20010904/DTD/svg10.dtd">
<svg version="1.0" xmlns="http://www.w3.org/2000/svg"
  width="149" height="28"
  viewBox="0 0 917 164"
  preserveAspectRatio="xMidYMid meet">

  <g transform="translate(0.000000,164.000000) scale(0.100000,-0.100000)"
     fill="#0068ef" stroke="none">

    <path d="M3594 1611 c-96 -58 -56 -215 58 -228 81 -9 138 41 138 122 0 101
-108 160 -196 106z"/>
    <path d="M4890 820 l0 -790 85 0 85 0 0 790 0 790 -85 0 -85 0 0 -790z"/>
    <path d="M8990 1295 l0 -316 -53 54 c-92 94 -207 137 -369 137 -171 0 -300
-51 -411 -161 -224 -223 -221 -617 5 -841 208 -204 596 -211 777 -12 l51 56 0
-91 0 -91 85 0 85 0 0 790 0 790 -85 0 -85 0 0 -315z m-273 -311 c153 -51 254
-182 270 -350 12 -134 -35 -262 -129 -349 -82 -77 -145 -99 -279 -99 -102 -1
-107 0 -181 37 -122 60 -193 157 -219 299 -37 199 85 404 274 463 60 19 206
18 264 -1z"/>
    <path d="M754 1591 c-96 -23 -198 -102 -237 -183 -36 -76 -47 -142 -47 -284 0
-105 -3 -131 -21 -168 -31 -66 -78 -109 -191 -172 -125 -70 -175 -115 -214
-191 -27 -53 -29 -67 -29 -163 0 -101 1 -108 34 -168 40 -74 93 -124 171 -161
47 -22 68 -26 145 -26 99 0 127 10 320 120 74 41 85 45 150 45 76 0 122 -16
200 -70 172 -119 328 -129 473 -32 102 67 156 171 155 297 0 151 -64 240 -248
350 -127 76 -184 130 -203 193 -7 22 -12 97 -12 169 0 154 -16 227 -66 300
-41 60 -120 118 -189 138 -51 16 -139 18 -191 6z m195 -184 c21 -14 49 -43 62
-64 24 -38 24 -42 30 -393 4 -265 9 -365 19 -395 30 -85 203 -218 262 -200 36
11 58 36 58 66 0 45 -9 57 -81 105 -93 61 -125 128 -77 158 20 12 75 -12 179
-79 74 -48 109 -102 109 -171 0 -44 -37 -130 -66 -156 -32 -28 -90 -48 -139
-48 -56 0 -81 12 -380 188 -261 153 -316 177 -390 168 -56 -6 -186 -66 -222
-102 -31 -31 -30 -78 2 -109 33 -34 54 -32 142 15 42 22 89 40 105 40 29 0 78
-38 78 -60 0 -13 -124 -94 -187 -122 -67 -30 -150 -22 -200 18 -61 50 -77 78
-81 147 -3 50 0 72 17 104 27 55 59 80 209 164 70 39 196 113 281 163 211 125
241 167 241 346 0 73 -3 83 -25 105 -30 30 -73 32 -107 5 -23 -18 -26 -28 -30
-107 -4 -96 -19 -131 -64 -152 -22 -10 -30 -9 -47 6 -18 16 -19 27 -15 128 7
148 38 209 128 250 51 23 140 14 189 -18z"/>
    <path d="M4625 1173 c-49 -6 -137 -33 -179 -55 -53 -27 -128 -99 -168 -161
l-33 -52 -3 123 -3 122 -84 0 -85 0 0 -560 0 -560 84 0 84 0 4 313 c4 293 5
315 26 367 60 150 204 261 360 277 l52 6 0 93 c0 69 -3 94 -12 93 -7 -1 -26
-4 -43 -6z"/>
    <path d="M7285 1169 c-121 -20 -199 -63 -284 -155 l-61 -67 0 102 0 101 -85 0
-85 0 0 -560 0 -560 85 0 85 0 0 283 c0 155 4 308 10 341 22 136 118 269 236
327 59 29 69 31 146 27 93 -5 143 -25 195 -80 68 -70 68 -71 71 -505 l3 -393
85 0 85 0 -3 423 c-3 416 -3 423 -26 480 -50 122 -171 215 -309 237 -66 11
-78 11 -148 -1z"/>
    <path d="M2510 1154 c-155 -41 -290 -150 -355 -286 -115 -242 -72 -523 107
-700 208 -204 596 -211 777 -12 l51 56 0 -91 0 -91 85 0 85 0 0 560 0 560 -85
0 -85 0 0 -85 0 -86 -53 54 c-93 96 -207 137 -373 136 -55 0 -124 -7 -154 -15z
m307 -170 c153 -51 254 -182 270 -350 12 -134 -35 -262 -129 -349 -82 -77
-145 -99 -279 -99 -102 -1 -107 0 -181 37 -122 60 -193 157 -219 299 -37 199
85 404 274 463 60 19 206 18 264 -1z"/>
    <path d="M5700 1154 c-155 -41 -290 -150 -355 -286 -115 -242 -72 -523 107
-700 208 -204 596 -211 777 -12 l51 56 0 -91 0 -91 85 0 85 0 0 560 0 560 -85
0 -85 0 0 -85 0 -86 -53 54 c-93 96 -207 137 -373 136 -55 0 -124 -7 -154 -15z
m307 -170 c153 -51 254 -182 270 -350 12 -134 -35 -262 -129 -349 -82 -77
-145 -99 -279 -99 -102 -1 -107 0 -181 37 -122 60 -193 157 -219 299 -37 199
85 404 274 463 60 19 206 18 264 -1z"/>
    <path d="M3580 590 l0 -560 85 0 85 0 0 560 0 560 -85 0 -85 0 0 -560z"/>
  </g>
</svg>
