<?xml version="1.0" standalone="no"?>
<!DOCTYPE svg PUBLIC "-//W3C//DTD SVG 20010904//EN"
 "http://www.w3.org/TR/2001/REC-SVG-20010904/DTD/svg10.dtd">
<svg version="1.0" xmlns="http://www.w3.org/2000/svg"
 width="300.000000pt" height="300.000000pt" viewBox="0 0 300.000000 300.000000"
 preserveAspectRatio="xMidYMid meet">

<g transform="translate(0.000000,300.000000) scale(0.100000,-0.100000)"
 fill="#0068ef" stroke="none">

<path d="M1320 2980 c-248 -35 -493 -133 -681 -275 -111 -83 -271 -250 -342
-357 -63 -94 -144 -258 -177 -358 -60 -178 -86 -401 -70 -586 58 -663 518
-1187 1163 -1326 147 -31 427 -31 574 0 207 45 417 138 574 257 111 83 272
251 341 356 226 342 305 754 219 1147 -38 175 -116 358 -218 510 -71 107 -231
274 -342 357 -157 118 -369 213 -569 255 -111 24 -368 34 -472 20z m255 -769
c76 -35 104 -91 105 -213 0 -91 9 -105 110 -171 85 -55 110 -93 110 -166 0
-101 -72 -173 -174 -175 -46 0 -63 5 -117 39 -85 53 -130 53 -214 3 -73 -44
-111 -53 -164 -38 -81 22 -133 89 -133 171 1 77 42 133 131 179 72 36 84 59
91 170 9 119 32 164 102 199 52 26 100 27 153 2z m-601 -837 c20 -8 21 -48 2
-63 -33 -28 -74 27 -44 57 14 14 20 14 42 6z m376 -225 l0 -220 -27 3 -28 3
-3 218 -2 217 30 0 30 0 0 -221z m1130 1 l0 -220 -25 0 c-19 0 -25 5 -25 23 0
14 -3 18 -8 10 -4 -7 -25 -20 -47 -28 -73 -31 -163 3 -200 76 -21 39 -19 117
4 159 37 71 138 100 214 61 l37 -19 0 79 c0 78 0 79 25 79 l25 0 0 -220z
m-1717 76 l36 -25 3 22 c2 14 10 22 23 22 19 0 20 -8 23 -157 l3 -158 -26 0
c-18 0 -25 5 -25 20 l0 21 -27 -21 c-16 -11 -48 -22 -73 -26 -118 -15 -212
110 -169 223 35 92 153 132 232 79z m217 -136 l0 -160 -25 0 -25 0 0 153 c0
85 3 157 7 160 3 4 15 7 25 7 17 0 18 -12 18 -160z m138 126 l4 -28 27 26 c15
14 42 29 60 32 31 7 32 6 29 -22 -2 -22 -10 -30 -34 -36 -16 -4 -41 -19 -55
-34 -21 -23 -24 -36 -27 -125 -4 -97 -4 -99 -28 -99 l-24 0 0 161 0 160 23 -3
c16 -2 23 -11 25 -32z m542 5 l30 -22 0 26 c0 22 4 26 23 23 22 -3 22 -6 25
-160 l3 -158 -26 0 c-18 0 -25 5 -25 20 0 25 -4 25 -41 -2 -41 -31 -127 -31
-166 -2 -49 36 -73 82 -73 138 0 104 69 170 168 163 34 -2 63 -12 82 -26z
m210 -6 c4 -23 7 -26 12 -13 21 53 138 62 187 14 25 -25 26 -31 29 -156 l4
-130 -26 0 -26 0 0 109 c0 94 -3 112 -21 135 -24 30 -72 35 -107 10 -40 -27
-52 -66 -52 -164 0 -89 0 -90 -25 -90 l-25 0 0 161 0 160 22 -3 c16 -2 24 -12
28 -33z"/>
<path d="M1464 2140 c-38 -16 -54 -50 -54 -117 0 -49 3 -63 15 -63 19 0 35 31
35 72 0 46 12 60 46 56 28 -3 29 -5 32 -63 4 -90 -14 -111 -183 -207 -77 -44
-148 -89 -157 -101 -47 -58 -3 -147 71 -147 43 0 131 45 131 67 0 22 -39 24
-79 3 -50 -25 -67 -25 -81 -1 -15 30 -2 50 51 76 79 41 90 38 299 -84 102 -59
142 -71 185 -55 37 15 59 103 33 136 -20 24 -91 68 -110 68 -33 0 -20 -38 21
-66 45 -30 55 -48 41 -75 -19 -34 -70 -17 -125 41 l-30 31 -5 189 c-5 186 -6
190 -30 215 -28 28 -74 39 -106 25z"/>
<path d="M2264 1181 c-114 -70 -23 -249 100 -197 46 19 66 52 66 106 -1 91
-87 139 -166 91z"/>
<path d="M628 1183 c-77 -48 -67 -164 17 -199 65 -27 138 13 151 82 18 95 -87
167 -168 117z"/>
<path d="M1518 1184 c-71 -38 -76 -140 -8 -191 64 -49 170 3 172 86 3 93 -85
149 -164 105z"/>
</g>
</svg>
