<?xml version="1.0" encoding="UTF-8" standalone="no"?>
<!DOCTYPE svg PUBLIC "-//W3C//DTD SVG 1.1//EN"
  "http://www.w3.org/Graphics/SVG/1.1/DTD/svg11.dtd">
<svg version="1.1"
     xmlns="http://www.w3.org/2000/svg"
     width="72" height="72"
     viewBox="0 0 300 300"
     preserveAspectRatio="xMidYMid meet">

  <g transform="translate(0.000000,300.000000) scale(0.100000,-0.100000)"
     fill="#0068ef" stroke="none">

    <path d="M1320 2984 c-230 -42 -307 -66 -475 -149 -463 -229 -767 -678 -816
    -1204 -42 -441 122 -886 442 -1201 195 -192 438 -324 723 -392 125 -30 468
    -33 591 -5 137 31 236 66 360 126 392 191 674 539 785 968 177 680 -149 1399
    -775 1708 -232 115 -361 146 -625 150 -102 2 -196 1 -210 -1z m255 -773 c76
    -35 104 -91 105 -213 0 -91 9 -105 110 -171 85 -55 110 -93 110 -167 0 -47 -5
    -64 -29 -97 -36 -49 -91 -77 -154 -76 -38 1 -61 9 -110 39 -82 52 -131 53
    -205 5 -94 -60 -174 -61 -243 -4 -40 34 -59 79 -59 141 0 62 28 106 95 149 28
    17 65 45 84 61 34 28 35 32 41 123 7 105 27 158 70 189 62 44 121 51 185 21z
    m-601 -837 c20 -8 21 -48 2 -63 -33 -28 -74 27 -44 57 14 14 20 14 42 6z m376
    -224 l0 -220 -25 0 -25 0 0 220 0 220 25 0 25 0 0 -220z m1130 -1 l0 -220 -22
    3 c-15 2 -22 9 -22 21 2 22 -1 21 -34 -3 -44 -32 -100 -35 -152 -8 -61 31 -90
    77 -90 142 0 68 26 115 80 143 53 28 104 29 153 4 l37 -19 0 79 c0 78 0 79 25
    79 l25 0 0 -221z m-1709 72 c29 -21 29 -21 29 -1 0 15 7 20 25 20 l25 0 0
    -155 0 -155 -25 0 c-19 0 -25 5 -25 21 0 20 0 20 -32 -2 -64 -46 -178 -23
    -218 44 -55 90 -25 203 65 243 42 20 119 12 156 -15z m469 5 c0 -19 -8 -27
    -35 -36 -19 -6 -46 -25 -60 -41 -23 -28 -25 -39 -25 -125 0 -94 0 -94 -25 -94
    l-25 0 0 155 0 155 25 0 c20 0 25 -5 25 -27 l0 -26 23 20 c53 48 97 57 97 19z
    m421 -5 c29 -21 29 -21 29 -1 0 15 7 20 25 20 l25 0 0 -155 0 -155 -25 0 c-18
    0 -25 5 -25 20 0 25 -4 25 -38 0 -44 -32 -100 -35 -152 -8 -61 31 -90 77 -90
    142 0 69 26 115 81 144 54 29 125 26 170 -7z m373 19 c51 -19 66 -62 66 -192
    l0 -118 -25 0 -25 0 0 109 c0 94 -3 112 -21 135 -29 37 -78 36 -121 -3 -33
    -29 -33 -30 -36 -135 -4 -104 -4 -106 -28 -106 l-24 0 0 155 0 155 25 0 c20 0
    25 -5 26 -27 0 -16 3 -22 6 -15 16 40 102 63 157 42z m-1054 -155 l0 -155 -25
    0 -25 0 0 155 0 155 25 0 25 0 0 -155z m217 -302 c-3 -2 -8 5 -12 16 -3 12
    -11 19 -16 16 -5 -3 -6 2 -2 11 5 14 8 12 20 -11 8 -15 12 -29 10 -32z m273
    22 c0 -19 -2 -35 -4 -35 -2 0 -6 16 -8 35 -2 19 0 35 4 35 4 0 8 -16 8 -35z
    m145 -23 c-3 -3 -8 4 -12 16 -3 12 -9 19 -14 16 -5 -3 -6 3 -2 12 5 14 8 12
    20 -11 8 -15 12 -30 8 -33z m112 6 c-2 -13 -4 -5 -4 17 -1 22 1 32 4 23 2 -10
    2 -28 0 -40z m64 15 c-4 -28 -6 -32 -9 -15 -3 22 3 52 11 52 1 0 1 -17 -2 -37z
    m228 -18 c0 -5 -6 1 -14 15 l-13 25 -11 -27 c-6 -16 -13 -28 -16 -28 -4 0 -5
    3 -3 8 2 4 10 20 18 35 l14 28 13 -23 c7 -13 12 -27 12 -33z m-1202 -2 c-3
    -10 -5 -2 -5 17 0 19 2 27 5 18 2 -10 2 -26 0 -35z m75 18 c2 -17 1 -28 -4
    -25 -8 5 -12 54 -4 54 2 0 6 -13 8 -29z m93 -1 c14 -17 15 -21 3 -12 -14 11
    -17 10 -21 -5 -3 -10 -5 -3 -6 16 0 19 0 32 2 30 1 -2 11 -15 22 -29z m44 -2
    c-1 -24 -3 -27 -6 -10 -2 12 -9 20 -14 17 -5 -3 -6 1 -3 9 11 27 24 17 23 -16z
    m24 12 c-3 -12 -8 -19 -11 -16 -5 6 5 36 12 36 2 0 2 -9 -1 -20z m55 -16 c-3
    -14 -5 -12 -10 9 -3 19 -2 25 4 19 6 -6 8 -18 6 -28z m170 5 c-3 -8 -7 -3 -11
    10 -4 17 -3 21 5 13 5 -5 8 -16 6 -23z m49 -16 c-3 -10 -5 -2 -5 17 0 19 2 27
    5 18 2 -10 2 -26 0 -35z m93 32 c-6 -7 -6 -15 0 -21 6 -6 3 -10 -8 -10 -11 0
    -17 8 -17 21 0 13 6 21 17 21 11 0 14 -4 8 -11z m87 -32 c-3 -10 -5 -2 -5 17
    0 19 2 27 5 18 2 -10 2 -26 0 -35z m137 32 c-4 -8 0 -23 7 -33 12 -16 12 -16
    -5 0 -16 14 -17 48 -2 48 3 0 3 -7 0 -15z m54 -16 c-3 -8 -7 -3 -11 10 -4 17
    -3 21 5 13 5 -5 8 -16 6 -23z m152 7 c0 -8 -8 -20 -17 -27 -16 -13 -17 -12 -4
    3 7 10 11 25 7 33 -3 9 -2 13 4 10 6 -3 10 -12 10 -19z m65 14 c3 -6 -1 -7 -9
    -4 -18 7 -21 14 -7 14 6 0 13 -4 16 -10z m33 -37 c-3 -14 -5 -14 -18 2 -9 11
    -10 16 -2 11 8 -5 12 0 13 16 1 17 3 18 6 6 2 -10 3 -25 1 -35z m139 18 c-1
    -17 -5 -27 -9 -23 -7 7 0 52 8 52 2 0 2 -13 1 -29z m113 5 c0 -8 -8 -20 -17
    -27 -16 -13 -17 -12 -4 3 7 10 11 25 7 33 -3 9 -2 13 4 10 6 -3 10 -12 10 -19z
    m-439 -13 c-12 -20 -14 -14 -5 12 4 9 9 14 11 11 3 -2 0 -13 -6 -23z m-901 7
    c0 -5 -5 -10 -11 -10 -5 0 -7 5 -4 10 3 6 8 10 11 10 2 0 4 -4 4 -10z m291
    -23 c-10 -9 -11 -8 -5 6 3 10 9 15 12 12 3 -3 0 -11 -7 -18z m393 7 c3 -8 2
    -12 -4 -9 -6 3 -10 10 -10 16 0 14 7 11 14 -7z m27 -7 c-10 -9 -11 -8 -5 6 3
    10 9 15 12 12 3 -3 0 -11 -7 -18z"/>

    <path d="M1464 2140 c-38 -16 -54 -50 -54 -117 0 -45 4 -63 13 -63 24 0 37 24
    37 66 0 47 17 67 52 62 21 -3 23 -9 26 -63 4 -90 -14 -111 -183 -207 -77 -44
    -148 -89 -157 -101 -26 -33 -23 -89 7 -121 34 -36 92 -36 151 2 24 15 44 32
    44 39 0 22 -39 24 -79 3 -50 -25 -67 -25 -81 -1 -15 30 -2 50 51 76 80 41 85
    40 314 -93 105 -61 150 -68 190 -27 27 26 34 80 15 115 -11 21 -91 70 -114 70
    -25 0 -19 -37 10 -57 36 -25 64 -52 64 -61 0 -5 -6 -16 -13 -27 -19 -26 -59
    -13 -110 35 l-42 39 -5 190 c-5 187 -5 191 -30 216 -28 28 -74 39 -106 25z"/>

    <path d="M2268 1184 c-79 -43 -74 -160 8 -199 31 -14 43 -15 75 -6 53 16 79
    53 79 110 -1 90 -83 138 -162 95z"/>

    <path d="M629 1185 c-15 -8 -34 -31 -44 -52 -16 -33 -16 -41 -4 -77 17 -48 58
    -80 103 -80 95 0 145 91 96 172 -31 51 -96 67 -151 37z"/>

    <path d="M1518 1184 c-32 -17 -58 -62 -58 -99 0 -125 178 -150 217 -31 33 97
    -69 180 -159 130z"/>

  </g>
</svg>
