<?xml version="1.0" standalone="no"?>
<!DOCTYPE svg PUBLIC "-//W3C//DTD SVG 20010904//EN"
 "http://www.w3.org/TR/2001/REC-SVG-20010904/DTD/svg10.dtd">
<svg version="1.0" xmlns="http://www.w3.org/2000/svg"
    width="1080.000000pt" height="1080.000000pt"
    viewBox="0 0 1080.000000 1080.000000"
    preserveAspectRatio="xMidYMid meet">

  <g transform="translate(0.000000,1080.000000) scale(0.100000,-0.100000)"
     fill="#0068ef" stroke="none">

    <path d="M5326 10161 c-3 -5 -59 -12 -123 -16 -65 -4 -122 -10 -128 -14 -5 -3
-39 -11 -75 -18 -128 -24 -157 -31 -270 -70 -144 -50 -145 -51 -315 -134 -225
-109 -429 -254 -606 -429 -155 -154 -304 -352 -369 -493 -16 -34 -38 -78 -49
-97 -25 -44 -85 -183 -100 -230 -6 -19 -20 -64 -32 -100 -22 -69 -43 -158 -60
-254 -5 -33 -12 -63 -14 -67 -17 -26 -27 -319 -35 -944 l-8 -720 -30 -130
c-31 -135 -60 -220 -115 -340 -94 -209 -330 -499 -504 -623 -94 -66 -386 -243
-553 -334 -237 -130 -354 -193 -365 -197 -46 -17 -368 -223 -460 -295 -106
-82 -275 -245 -353 -340 -191 -233 -390 -634 -447 -901 -9 -44 -23 -107 -30
-140 -8 -33 -19 -149 -26 -258 -24 -376 26 -672 170 -1012 28 -66 130 -259
162 -308 22 -32 39 -60 39 -63 0 -11 150 -199 221 -277 82 -88 228 -219 329
-293 186 -137 448 -266 670 -333 166 -49 168 -49 430 -87 209 -30 591 3 830
72 30 8 69 19 85 24 75 21 282 108 393 165 166 85 468 261 667 390 39 24
86 54 105 65 19 11 80 47 135 80 169 100 348 183 470 218 203 57 272 66
475 59 234 -8 305 -20 498 -84 200 -65 438 -192 716 -379 113 -76 344 -216
491 -298 395 -221 708 -307 1135 -310 318 -2 605 55 909 180 498 206 946
632 1173 1115 73 153 81 174 112 284 49 173 44 150 73 330 18 118 29 559
14 590 -5 11 -14 54 -20 95 -31 228 -103 449 -227 690 -161 315 -421 603
-741 819 -123 83 -218 143 -263 168 -19 10 -69 38 -110 62 -164 96 -257 150
-298 172 -363 198 -718 446 -851 595 -129 146 -232 326 -289 504 -65 206
-63 180 -73 960 -10 761 -16 903 -44 1045 -9 50 -21 113 -25 140 -18 105
-62 256 -95 330 -8 17 -28 66 -45 110 -18 44 -38 87 -45 95 -7 8 -25 40
-40 70 -44 88 -181 287 -252 365 -10 11 -44 51 -77 88 -79 91 -339 308
-441 367 -105 61 -345 177 -411 199 -38 12 -78 26 -89 30 -42 17 -123 40
-200 56 -44 9 -91 20 -105 25 -14 5 -65 11 -113 14 -49 4 -97 11 -107 16
-23 12 -267 13 -274 1z m325 -1040 c251 -58 400 -126 559 -256 224 -183 356
-396 443 -715 20 -74 20 -104 28 -2015 4 -1067 10 -1960 13 -1985 21 -155
30 -205 53 -290 14 -52 29 -108 33 -125 15 -58 60 -166 111 -267 93 -180
269 -394 439 -531 41 -34 77 -64 80 -67 5 -6 138 -105 250 -186 151 -110
352 -217 485 -260 84 -27 284 -25 370 3 130 42 230 134 276 250 17 44 23
85 27 172 2 64 0 122 -6 135 -65 139 -80 164 -136 221 -60 62 -105 92
-456 315 -63 40 -135 89 -160 109 -25 20 -64 50 -88 66 -89 59 -204 207
-253 325 -15 36 -33 104 -40 152 -11 78 -10 92 6 135 42 112 98 153 221
161 98 6 150 -8 263 -72 42 -24 108 -60 146 -81 340 -185 620 -350 768
-452 105 -73 262 -229 320 -320 111 -174 158 -326 172 -558 18 -307 -64
-600 -237 -851 -58 -84 -199 -223 -287 -282 -80 -54 -226 -126 -296 -146
-33 -9 -75 -21 -93 -27 -77 -25 -157 -32 -342 -33 -183 0 -262 8 -315 33
-11 5 -49 19 -84 31 -68 22 -200 80 -266 117 -22 12 -60 32 -85 45 -25
12 -88 48 -140 79 -52 31 -111 65 -130 76 -19 11 -91 54 -160 95 -69 41
-215 128 -325 193 -110 65 -211 125 -225 134 -27 17 -37 23 -167 95 -49
26 -95 54 -103 61 -8 7 -42 27 -75 44 -33 18 -67 38 -75 45 -8 7 -23 16
-33 19 -10 4 -42 22 -70 40 -68 43 -83 51 -142 83 -27 14 -57 32 -65 39
-8 6 -53 33 -100 59 -47 26 -101 56 -120 68 -19 11 -75 44 -125 73 -49
29 -163 96 -253 149 -89 53 -184 107 -210 121 -165 90 -221 121 -233 131
-8 6 -41 26 -74 43 -33 18 -67 38 -75 45 -8 7 -37 24 -65 38 -27 13 -72
36 -100 50 -95 49 -180 86 -265 115 -172 60 -146 53 -340 90 -224 42 -506
8 -765 -91 -157 -60 -737 -359 -865 -446 -88 -59 -184 -168 -210 -236 -69
-185 -47 -371 61 -520 67 -92 140 -139 268 -169 77 -19 133 -16 251 14
51 13 261 117 363 180 37 22 69 41 71 41 2 0 30 18 62 39 76 50 244
136 309 156 80 26 185 45 248 45 139 0 298 -62 395 -154 45 -42 62 -76
63 -128 0 -24 4 -52 8 -63 27 -67 -81 -165 -404 -367 -657 -411 -817 -483
-1150 -517 -90 -10 -279 -4 -310 9 -11 5 -44 11 -74 14 -30 3 -59 10 -65
16 -5 5 -21 10 -36 10 -14 0 -34 7 -44 15 -11 8 -28 15 -39 15 -17 0
-36 8 -97 41 -8 4 -37 20 -65 35 -27 14 -59 34 -70 43 -11 9 -39 30 -62
45 -54 36 -206 194 -261 271 -48 68 -140 248 -154 304 -44 166 -49 204
-55 376 -6 199 5 289 54 440 33 104 137 312 173 345 3 3 36 40 73 82
38 43 103 105 145 139 78 63 264 189 337 229 22 12 60 33 85 46 25 14
71 40 103 57 32 18 66 37 75 42 9 6 44 26 77 45 33 19 69 40 80 47 11
7 27 15 35 19 8 4 32 18 53 32 22 13 76 43 120 67 45 23 109 58 142
77 33 19 67 37 75 41 8 4 33 18 55 30 22 13 67 38 100 57 33 18 76
43 95 55 19 12 42 24 50 28 8 4 22 11 30 17 35 22 151 90 155 90 2
0 45 25 95 55 50 30 93 55 95 55 3 0 51 28 108 63 57 35 110 67 118
71 8 4 23 12 34 19 12 7 70 41 130 76 61 35 143 84 183 108 40 23
75 43 77 43 2 0 45 25 95 55 50 30 93 55 95 55 3 0 34 18 70 40 36
22 68 40 71 40 2 0 17 8 32 19 15 10 94 58 177 107 82 49 159 94
170 101 11 7 27 15 35 19 8 4 29 17 45 29 17 12 37 25 45 28 22
10 44 24 165 111 265 190 467 442 592 736 43 100 52 128 68 200 9 41
21 93 28 115 9 29 12 181 11 555 l0 515 -24 60 c-46 119 -131 215 -233
264 -49 24 -83 33 -162 40 -166 15 -310 -22 -414 -107 -65 -52 -79 -69
-110 -137 -53 -112 -61 -178 -67 -524 -5 -349 -14 -446 -52 -570 -53 -173
-177 -316 -337 -390 -79 -37 -182 -43 -225 -14 -46 30 -92 78 -111 116
-20 37 -20 57 -16 655 5 655 2 617 55 812 58 209 167 390 335 553 173
168 382 279 617 328 124 25 359 25 471 0z"/>
  </g>
</svg>
